<?xml version="1.0" encoding="utf-8"?>
<!-- Generator: Adobe Illustrator 25.0.0, SVG Export Plug-In . SVG Version: 6.00 Build 0)  -->
<svg version="1.1" xmlns="http://www.w3.org/2000/svg" xmlns:xlink="http://www.w3.org/1999/xlink" x="0px" y="0px"
	 viewBox="0 0 1920 1080" style="enable-background:new 0 0 1920 1080;" xml:space="preserve">
<style type="text/css">
	.st0{fill:#682A07;}
	.st1{fill:#A14000;}
	.st2{fill:#CC8221;}
	.st3{fill:#E5DBCF;}
	.st4{fill:#070604;}
	.st5{fill:#917647;}
	.st6{fill:#CECCCA;}
	.st7{fill:#EDEFF4;}
	.st8{fill:#6A7A72;}
	.st9{fill:#6B6361;}
	.st10{fill:#A39995;}
	.st11{fill:#68808E;}
	.st12{fill:#83A4B5;}
	.st13{fill:#515F66;}
	.st14{fill:#9BB2C3;}
	.st15{fill:#544536;}
	.st16{fill:#7696B2;}
	.st17{fill:#38383F;}
	.st18{fill:#43434E;}
	.st19{fill:#CED0D8;}
	.st20{fill:#97824A;}
	.st21{fill:#BCB095;}
	.st22{fill:#827864;}
	.st23{fill:#2C2C30;}
	.st24{fill:none;stroke:#000000;stroke-miterlimit:10;}
	.st25{clip-path:url(#SVGID_2_);fill:none;stroke:#000000;stroke-miterlimit:10;}
</style>
<g id="Ebene_5">
	<polygon class="st0" points="443.9,558.1 443.9,702.9 443.9,703.8 482.1,695 796.3,623.3 796.3,402 706.9,441.6 	"/>
	<polygon class="st1" points="811.9,623.3 812.7,405.7 828.1,407.4 840.5,401.8 853.1,396.1 855.6,394.3 859.8,390 860.5,388.8 
		860.5,371.1 1010,298.7 1204.4,204.4 1204.4,228.7 1217.8,232.9 1241.3,222.4 1247.7,219.2 1548.8,453.6 1539.8,456.4 
		1540.5,471.3 1551.1,472.3 1559.9,470.6 1559.9,650.8 	"/>
	<polygon class="st2" points="1062.4,361.6 1069.5,362.2 1076.5,625.2 1068,624.6 	"/>
	<polygon class="st3" points="954.8,349.9 1062.4,361.6 1068,624.6 956.9,620.1 	"/>
	<polygon class="st4" points="954.7,360.5 1053,371.1 1054.4,506.4 956,502.2 	"/>
	<polygon class="st4" points="956.1,520.6 1060.1,527.2 1062.2,616.2 957.2,612.3 	"/>
	<polygon class="st3" points="1129.9,559.3 1129.9,567.8 1303.1,576.7 1295.8,385.3 1124.8,367.6 	"/>
	<polygon class="st2" points="1305.1,386.2 1295.8,385.3 1303.1,576.7 1312.5,576.7 	"/>
	<polygon class="st4" points="1124.8,374.1 1290.3,391.8 1297.5,567.3 1129.9,559.3 	"/>
	<polygon class="st2" points="1441.2,401.2 1448.7,637.2 1458.7,637.5 1447.5,401.8 	"/>
	<polygon class="st3" points="1354.7,392.6 1364.1,634.7 1448.7,637.2 1441.2,401.2 	"/>
	<polygon class="st4" points="1434,406.8 1354.7,397.7 1360,529 1437.4,533.7 	"/>
	<polygon class="st4" points="1360.7,547.1 1440.8,551.6 1443.8,630.4 1364,627.7 	"/>
	<polygon class="st5" points="796.3,623.3 811.9,623.7 812.7,393.8 796.3,402 	"/>
	<polygon class="st6" points="443.9,707.4 443.9,916.4 796.3,955.9 796.3,629.6 	"/>
	<polygon class="st7" points="1559.9,656.6 796.3,629.6 796.3,955.9 1559.9,931 	"/>
	<polygon class="st8" points="443.9,707.4 443.9,703.8 796.3,623.3 796.3,629.6 	"/>
	<polygon class="st9" points="515.3,748.4 515.3,740.2 465.3,747.7 465.2,888.9 469.9,889.8 470.9,753.9 	"/>
	<polygon class="st4" points="514.4,894.8 469.9,889.8 470.9,753.9 515.3,748.4 	"/>
	<polygon class="st9" points="624,732.7 624.3,722.3 590.6,727.5 590.6,903.7 600.2,904.9 600.7,735.3 	"/>
	<polygon class="st4" points="624.3,907.6 600.2,904.9 600.7,735.3 624,732.7 	"/>
	<polygon class="st9" points="785.7,702.3 785.6,696.3 680,712.8 680,913.6 686.1,914.3 685.3,717.8 	"/>
	<polygon class="st4" points="785.7,925.9 785.7,702.3 685.3,717.8 686.2,914.5 	"/>
	<polygon class="st10" points="847.2,694.4 847,700.4 963.9,702.3 964,696.7 	"/>
	<polygon class="st10" points="982.8,707.3 983,697.4 1088.9,699.3 1088.9,708 	"/>
	<polygon class="st10" points="1105.2,709.6 1104.8,699.3 1202.4,701.2 1202.3,710.7 	"/>
	<polygon class="st10" points="1363,705.1 1362.9,710.6 1448.6,711.2 1448.7,706.7 	"/>
	<polygon class="st4" points="847,945.6 847,701 963.9,702.3 963.9,941.4 	"/>
	<polygon class="st4" points="982.8,707.3 982.8,940.8 1088.6,937.3 1088.9,708 	"/>
	<polygon class="st4" points="1202.3,710.7 1105.2,709.6 1104.9,936.4 1202.3,933.3 	"/>
	<polygon class="st4" points="1362.9,928.3 1448.5,925.5 1448.6,711.2 1362.9,710.6 	"/>
	<polygon class="st11" points="721,368.7 720.6,372 722.1,375.5 726,378.7 729.9,379.7 733.6,379.5 619,436.9 532.5,480.1 
		413.8,539.6 378.5,557.4 376.1,555.7 372.4,555.3 368.1,555.6 367.4,556.7 367.7,562.4 365.3,563.8 361.5,565.5 357.9,565.4 
		354.2,563.1 353.3,561.2 353.3,559.8 353.3,559.1 608.1,427.3 	"/>
	<polygon class="st12" points="740.7,368.5 741.5,371.4 738.5,376.8 733.6,379.2 728.2,379.2 724,377.7 721.5,374.7 720.7,371.7 
		721,368.7 	"/>
	<path class="st13" d="M368.3,564.7l-0.7-4v-4.7c0,0,3.5-1.7,6.9-0.9s4.2,2.1,4.2,2.1l-1.8,7.8c0,0-3.4,0.6-5.5,0.5
		C369.3,565.4,368.3,564.7,368.3,564.7z"/>
	<path class="st14" d="M429.6,913.5c0,0,0.8,2.1,5.6,2s4.8-1.7,4.8-1.7l-0.1-4.3l0-50.7l0.1-34.5l0-46.3l0-23.4l0.4-14.1l0.7-27.3
		l0.9-28.5l1.1-32.5l0.9-22.2c0,0-0.7-3.7-1.5-5.2c-0.8-1.5-1.3-2.4-11.8-10.2s-40.3-29.8-40.3-29.8s-9.6-7.4-10.8-9.3
		c-1.1-1.9-3-8.3-3-8.3l0.1-2.2c0,0-3.9,0.3-5,0.4c-1.2,0.1-2.9-0.4-2.9-0.4s1,6,1.7,8.2s2.3,5,2.9,5.6c0.6,0.6,15.6,13.1,15.6,13.1
		l12.4,9.1l3,2l20.4,15.4l5.6,4.2l1.9,1.8l2.7,4.2l0.3,2.3l-0.7,0l0,4.9l0.6,2.2l-0.8,46.5l-0.9,33.5l-0.4,20.9l-0.5,21.4l-0.5,25
		l-0.9,50.3l-0.6,22.8l-0.7,36.2L429.6,913.5z"/>
	<polygon class="st15" points="378.9,557 377.7,562.1 394.7,554.2 473.4,516.8 529.4,490 603.3,454.9 653.7,430.8 749.2,385 
		746.8,378.3 744.8,379.2 741.5,371.2 739.9,375.1 737.3,377.8 731.8,380.2 630.4,431.2 521.5,485.9 	"/>
	<polygon class="st7" points="756.9,381.4 779.3,371.1 819.9,351.9 977.3,277.4 1056.4,240 1183.9,179.6 1247.4,149.6 1655.3,467.6 
		1651.1,486 1637.3,486 1610.8,465.5 1594.4,451.9 1594.7,458.9 1590.4,464.7 1551.1,472.3 1541.9,471.3 1580.4,463.2 1584.4,458.8 
		1584.4,444 1507.1,383.2 1446.1,335.7 1292.6,214.6 1259.2,188.3 1259.2,204.4 1253.9,216.6 1217.8,232.9 1204.4,228.7 
		1236.6,214.4 1243.6,203.3 1247.4,183.5 1167.9,221.6 912.4,345.8 860.5,371.1 860.3,389.1 854.5,395.4 828.1,407.4 813.1,405.7 
		843.1,392.9 845.9,386.2 845.8,377.7 801.3,399.6 780.8,408.7 758.8,408.1 749.9,385 	"/>
	<polygon class="st16" points="746.8,378.3 749.2,385 1069.6,233.7 1155.7,193 1234.5,155.7 1247.4,149.6 1349,228.7 1399.8,268.4 
		1655.3,467.6 1668.8,467.9 1642.9,451.1 1642.3,450.2 1618.1,431.5 1594.8,412.4 1594.4,413.5 1547.1,375.4 1546.6,375.7 
		1521.9,355.9 1521.7,356.3 1484.5,326.2 1473.1,316.9 1472.8,317.8 1447.4,296.7 1447.2,297.5 1421.2,276.3 1395.2,256.2 
		1376.6,241.8 1369,236.2 1370.1,233.1 1358.9,214.5 1340.1,197.5 1313.8,180 1286,156.1 1263.8,136.5 1262.3,139.8 1260.2,141.9 
		1257.5,143.3 1253,143.4 1248.6,141 1247.4,139.6 885.6,307.2 	"/>
	<polygon class="st17" points="757.8,354.2 737.3,361.4 744.8,379.2 773.6,366.7 781.6,362.6 782.4,363.7 851.1,331.7 874.9,320.3 
		901.8,307.2 928.5,294.1 962.9,278.7 986.7,267.6 1020.3,251.3 1047.7,238.9 1076.7,225.6 1076.1,224.6 1107,210.4 1108.5,209.3 
		1136.2,196.8 1164.9,182.5 1193.8,169.9 1226.2,154.3 1249.3,142.9 1245.8,136.5 1245.3,129.8 1245.9,128.9 1213.3,141.6 
		1214.1,144.2 1185.8,154.9 1186.9,157 1157.7,168 1158.7,170.5 1130,181.2 1130.8,183.1 1101.3,194.6 1102.1,196.8 1069.6,208.5 
		1070.7,211.5 1040.4,223.2 1040.9,224.7 1009.2,237.1 1009.9,239.6 977.5,252.2 978.5,255.4 946.1,266.5 947,269.6 920.7,279.4 
		912.4,282.1 913.4,284.6 879,296.7 880.2,300 877.2,300.8 845.5,313.1 846.7,316.6 809.8,329.3 811.7,333.3 774.5,346 775.3,348.2 
			"/>
	<polygon class="st18" points="1261.4,148.6 1267.9,136.5 1293.3,153.8 1288.2,168.9 	"/>
	<polygon class="st18" points="1288.9,170.7 1294.5,158.6 1319.7,175.1 1315.2,191.4 	"/>
	<polygon class="st18" points="1316.9,192.3 1321.2,180.8 1346.8,197.1 1341.3,212.6 	"/>
	<polygon class="st18" points="1347.9,202 1373.2,217.7 1370.2,232.7 1367.2,234.9 1342.7,213.7 	"/>
	<polygon class="st18" points="1369,236.2 1372.5,222.5 1399.8,239.4 1399,243.5 1426.4,260.8 1425.7,263.7 1450.3,279.3 
		1450.3,281.8 1477.4,303.4 1477.9,304.4 1502.6,321.4 1501.9,323.4 1526.4,343.1 1526,344.2 1550.7,362.9 1550.7,363.7 
		1574.9,380.6 1574.9,382 1599,398.7 1598.1,401.6 1622.4,418.3 1621.7,420.3 1646.5,436.6 1645.9,438.4 1668.8,452.6 1668.8,467.6 
		1642.6,450.7 1641.7,449.5 1594.8,412.4 1594.4,413.5 1565.1,389.2 1546.8,375.2 1546.4,375.5 1521.9,355.9 1520.5,355.5 
		1482.6,324.6 1473.4,316.8 1472,317.2 1447.6,297.1 1446.4,296.9 1418.2,273.8 1399.2,259.4 1395.5,256.1 1375.4,240.9 	"/>
	<polygon class="st19" points="1204.5,226.2 1204.4,228.7 1212.4,225.2 1231.6,217 1236.9,214.4 1244.1,203.3 1247.4,183.5 
		1227.8,193.1 1204.6,204.4 	"/>
	<polygon class="st19" points="1539.8,456.4 1540.5,471.3 1567.5,466.1 1580.6,463.3 1584.9,458.4 1584.3,444.3 1539.8,455.9 	"/>
	<polygon class="st20" points="1568.9,469.1 1599.5,493 1610.9,493.6 1615.3,478.6 1593.5,461.4 1590.4,464.7 	"/>
	<polygon class="st20" points="1574.5,446.5 1549.2,453.4 1247.7,219.2 1253.9,216.6 1259.2,205.3 1259.3,198.9 	"/>
	<polygon class="st21" points="1584.4,444 1259.7,188.7 1259.2,198.3 1480.7,372.7 1553.8,430 1574.5,446.5 	"/>
	<polygon class="st21" points="1615,478.5 1624.9,476.5 1594.8,452.6 1594.7,458.9 1593.5,461.4 	"/>
	<polygon class="st19" points="812.7,405.3 812.7,393.8 845.8,378.1 845.9,385 844.9,389.1 843.1,392.9 815.7,404.6 813.1,405.7 	
		"/>
	<polygon class="st22" points="385.3,579.7 383.5,579.1 380,575.6 378.2,572.7 377.1,567 377.4,563.4 377.9,562.1 384,559.2 
		466.1,520.2 559.4,476.1 635.4,439.6 729.8,394.5 749.9,385 758.8,408.1 780.8,408.7 523.1,523 408.3,574.1 395.9,579.7 	"/>
	<polygon class="st21" points="796.3,629.6 796.3,623.3 1559.9,650.8 1559.9,656.6 	"/>
	<polygon class="st23" points="1247.3,139.1 1245.5,135.8 1245.2,130.3 1247.3,125.9 1252,122.3 1256.5,122 1259.1,123.2 
		1261.7,125.2 1264,128.9 1264.4,134.2 1262.3,139.8 1259.5,142.3 1255.5,143.5 1252,143.3 	"/>
</g>
<g id="Ebene_2">
	<polygon class="st24" points="796.3,955.9 443.9,916.4 443.9,558.1 796.3,402 	"/>
	<path class="st24" d="M1247.7,219.2"/>
	<polyline class="st24" points="1224.1,194.9 796.3,402 796.3,955.9 1559.9,931 1559.9,472.4 1559.9,470.6 	"/>
	<path class="st24" d="M721,368.5c-0.3,0.8-0.4,1.6-0.4,2.5c0,4.8,4.6,8.7,10.3,8.7c5.7,0,10.3-3.9,10.3-8.7c0-0.9-0.2-1.7-0.4-2.5
		H721z"/>
	<path class="st24" d="M694.5,382.4c-0.3,0.8-0.4,1.6-0.4,2.5c0,4.8,5.4,8.9,11,8.9"/>
	<path class="st24" d="M661.9,399.3c-0.3,0.8-0.4,1.6-0.4,2.5c0,4.8,4.6,8.7,10.3,8.7"/>
	<path class="st24" d="M633.3,413.9c-0.3,0.8-0.4,1.6-0.4,2.5c0,4.8,4.6,8.7,10.3,8.7"/>
	<path class="st24" d="M606.4,428.4c-0.3,0.8-0.4,1.6-0.4,2.5c0,4.8,3.2,8.1,8.9,8.1"/>
	<path class="st24" d="M581.3,441.6c-0.3,0.8-0.4,1.6-0.4,2.4c0,4.7,2.9,7.7,8.4,7.7"/>
	<path class="st24" d="M555.9,454.1c-0.3,0.7-0.4,1.4-0.4,2.2c0,4.3,4.2,7.7,9.4,7.7"/>
	<path class="st24" d="M532,466.9c-0.2,0.6-0.4,1.3-0.4,2c0,4,3.9,7.2,8.7,7.2"/>
	<path class="st24" d="M511.3,477.4c-0.2,0.6-0.3,1.2-0.3,1.9c0,3.7,3.6,6.6,8.1,6.6c1.5,0,2.9-0.3,4.1-0.9"/>
	<path class="st24" d="M491.5,487.5c-0.2,0.6-0.3,1.2-0.3,1.9c0,3.7,3.6,6.6,8.1,6.6c1.4,0,2.8-0.3,3.9-0.8"/>
	<path class="st24" d="M473.7,496.4c-0.2,0.6-0.3,1.2-0.3,1.9c0,3.7,3.6,6.6,8.1,6.6c1.4,0,2.7-0.3,3.8-0.8"/>
	<path class="st24" d="M454.9,506.6c-0.2,0.6-0.3,1.2-0.3,1.8c0,3.4,3.4,6.2,7.6,6.2c1.5,0,2.8-0.3,4-0.9"/>
	<path class="st24" d="M439.2,515.4c-0.2,0.6-0.3,1.2-0.3,1.8c0,3.4,3.4,6.2,7.6,6.2"/>
	<path class="st24" d="M422.5,523.4c-0.2,0.6-0.3,1.2-0.3,1.8c0,3.4,3.4,6.2,7.6,6.2"/>
	<path class="st24" d="M406,532c-0.2,0.6-0.3,1.2-0.3,1.8c0,3.4,3.2,6.2,7.1,6.2"/>
	<path class="st24" d="M391.8,539.6c-0.2,0.6-0.3,1.2-0.3,1.8c0,3.4,3.2,6.2,7.1,6.2"/>
	<path class="st24" d="M377.7,546.3c-0.2,0.5-0.3,1.1-0.3,1.7c0,3.2,4.1,5.9,7.9,5.9"/>
	<path class="st24" d="M364.6,553.8c-0.2,0.5-0.3,1.4-0.3,1.9c0,1.9,1.4,3.5,3.4,4.4"/>
	<line class="st24" x1="378.4" y1="557.3" x2="734.2" y2="379.2"/>
	<path class="st24" d="M353.5,559.1c-0.2,0.5-0.3,0.9-0.3,1.5c0,2.8,2.9,5.1,6.5,5.1c1.2,0,2.3-0.2,3.2-0.7l5.1-2.6"/>
	<line class="st24" x1="721" y1="368.5" x2="353.3" y2="559.4"/>
	<path class="st24" d="M367.4,558.6c0,0-0.5-2.9,0.7-3c1.2-0.1,1.7-0.6,4.6-0.5c2.9,0.1,5.8,1.5,5.8,2.3c0.1,0.8-1.2,7.4-1.7,7.6
		c-0.4,0.2-5.4,0.6-6.5,0.4c-1.1-0.2-2.2-0.4-2.3-1.2C368,563.5,367.4,558.6,367.4,558.6z"/>
	<path class="st24" d="M369.3,565.2c0,0-0.1,9.1,4.3,13.4c4.4,4.4,23.8,20.1,28.7,22.8c4.9,2.7,27.6,21.1,27.6,21.1s0.9-0.3,3.6,3.5
		c2.7,3.8,1.7,4.7,1.7,4.7h-0.5c0,0-0.2,5,0.2,5.3c0.4,0.3,0.5,5.4,0.5,5.4l-3.6,158.2l-2.2,113.8c0,0,0,2.1,5.8,2
		c5.8-0.1,4.5-2.2,4.5-2.2l0.1-156.5l1.3-53.9l2.5-72.7c0,0-0.2-6-4.1-8.9c-4-2.8-43.5-32.3-45.9-33.9c-2.5-1.6-12.1-9.3-14.3-12
		c-2.2-2.7-2.7-10.2-2.7-10.2"/>
	<polyline class="st24" points="443.9,703.8 796.3,623.3 1559.9,650.8 	"/>
	<polyline class="st24" points="443.9,707.4 796.3,629.6 1559.9,656.6 	"/>
	<line class="st24" x1="1574.9" y1="446.8" x2="1259.2" y2="198.4"/>
	<polyline class="st24" points="1568.4,468.7 1599.5,493 1610.8,493.9 1615.3,478.6 1593.5,461.4 	"/>
	<line class="st24" x1="1248.6" y1="220" x2="1548.8" y2="453.6"/>
	<polygon class="st24" points="1584.4,444.4 1259.2,188.4 1259.2,205.3 1253.8,216.8 1217.8,232.9 1205.1,228.7 1236.9,214.5 
		1243.8,203 1247.3,183.7 860.5,371.1 860.5,389.3 854.4,395.5 828.1,407.4 813.5,405.7 843.2,392.9 845.9,386.3 846,378.1 
		780.8,408.9 758.8,408.1 749.9,385 1247.4,149.6 1655.3,467.6 1651.1,486 1637.3,486 1594.4,452.3 1594.8,459.5 1590.4,464.7 
		1551.1,472.3 1541,471.4 1580.7,463.5 1584.9,458.2 	"/>
	<polygon class="st24" points="737.3,361.4 744.8,379.2 781.7,362.6 775.3,348.2 	"/>
	<polygon class="st24" points="774.2,346.1 782.4,363.7 818,346.9 811.7,333.3 	"/>
	<polygon class="st24" points="809.8,329.5 818,346.9 852,331.4 846,317 	"/>
	<path class="st24" d="M845.5,313.1c0,0.5,6.4,18.3,6.4,18.3l33.6-16.2l-6.1-15.3L845.5,313.1z"/>
	<polygon class="st24" points="879,296.7 885.6,315.2 919.1,298.7 912.6,284.9 	"/>
	<polygon class="st24" points="912.4,282.1 919.1,298.7 952.3,283.7 946.4,269.9 	"/>
	<polygon class="st24" points="945.9,266.6 952.3,283.7 984.8,268.5 978.2,255.6 	"/>
	<polygon class="st24" points="977.3,252.3 984.8,268.5 1015.5,253.5 1009.7,239.7 	"/>
	<polygon class="st24" points="1009.2,237.1 1015.5,253.5 1047.2,238.9 1040.7,224.7 	"/>
	<polygon class="st24" points="1040.4,223.2 1047.2,238.9 1076.5,225.6 1070.2,211.7 	"/>
	<polygon class="st24" points="1069.6,208.8 1076.5,224.7 1107,210.5 1101.9,196.8 	"/>
	<path class="st24" d="M1101.3,194.6c0,0,5.4,15.2,5.8,15.5c0.4,0.3,29.3-13.2,29.3-13.2l-5.8-13.5L1101.3,194.6z"/>
	<path class="st24" d="M1130,181.2l6.3,15.7l28.3-14c0,0-5.6-11.9-5.8-12.3C1158.6,170.1,1130,181.2,1130,181.2z"/>
	<polygon class="st24" points="1157.7,168 1165,182.6 1193.6,170 1186.5,157.1 	"/>
	<polygon class="st24" points="1185.8,155.1 1193.6,170 1220,157.1 1213.6,144.3 	"/>
	<path class="st24" d="M1213.1,141.7l6.9,15.5l29.3-14.3c0,0-3.5-4.7-3.9-7.8c-0.4-3.2-0.2-6-0.2-6L1213.1,141.7z"/>
	<ellipse class="st24" cx="1254.8" cy="132.8" rx="9.6" ry="10.8"/>
	<polygon class="st24" points="1261.3,148.7 1267.9,136.5 1293.3,153.8 1288.1,168.9 	"/>
	<polygon class="st24" points="1288.8,170.6 1294.5,158.6 1319.7,175.1 1315.2,191.6 	"/>
	<path class="st24" d="M1316.9,192.3l4.3-11.5c0,0,25.7,16.1,25.6,16.4s-5.5,15.6-5.5,15.6L1316.9,192.3z"/>
	<polygon class="st24" points="1342.7,213.8 1347.9,202 1373.2,217.7 1370.3,233 1367.2,235.2 	"/>
	<polygon class="st24" points="1369.2,236.1 1373.2,222.9 1399.8,239.4 1395.7,256.6 	"/>
	<polygon class="st24" points="1396.3,257.3 1399.4,243.5 1426.7,260.9 1421.2,276.3 	"/>
	<polygon class="st24" points="1450.6,279.5 1447.1,297.4 1421.2,276.3 1425.7,263.7 	"/>
	<path class="st24" d="M1450.6,282.3l26.8,21.1c0,0-4.4,14-4.6,14.4c-0.2,0.4-24.7-20.4-24.7-20.4L1450.6,282.3z"/>
	<polygon class="st24" points="1502.6,321.4 1497.7,336.8 1473.1,317 1477.4,304 	"/>
	<path class="st24" d="M1526.4,343.1c-0.1,0.4-4.7,13.3-4.7,13.3l-24-19.6l4.2-13.4L1526.4,343.1z"/>
	<polygon class="st24" points="1550.7,362.9 1546.6,375.7 1521.9,355.9 1526,344.2 	"/>
	<polygon class="st24" points="1575.2,380.8 1571,393.9 1546.8,375.2 1550.7,363.7 	"/>
	<polygon class="st24" points="1599,398.7 1594.5,413.4 1571,393.9 1574.9,382 	"/>
	<polygon class="st24" points="1622.4,418.3 1618.3,431.6 1594.8,412.4 1598,401.9 	"/>
	<polygon class="st24" points="1646.5,436.6 1642.3,450.2 1618.3,431.6 1621.7,420.3 	"/>
	<polygon class="st24" points="1668.8,452.6 1668.8,467.9 1642.6,450.9 1645.9,438.4 	"/>
	<polyline class="st24" points="443.9,567.4 796.3,417.6 796.1,433.7 443.9,578 	"/>
	<line class="st24" x1="443.9" y1="589.3" x2="796.3" y2="448.8"/>
	<line class="st24" x1="796.1" y1="464" x2="443.9" y2="599.6"/>
	<line class="st24" x1="443.9" y1="609.4" x2="796.1" y2="481.7"/>
	<line class="st24" x1="796.3" y1="497.8" x2="443.9" y2="619.3"/>
	<line class="st24" x1="796.3" y1="512" x2="443.9" y2="633.5"/>
	<line class="st24" x1="796.3" y1="527.9" x2="443.9" y2="640.9"/>
	<line class="st24" x1="796.3" y1="544.1" x2="443.9" y2="651.7"/>
	<line class="st24" x1="796.3" y1="558.6" x2="443.9" y2="662.2"/>
	<line class="st24" x1="796.3" y1="575" x2="443.9" y2="670.7"/>
	<line class="st24" x1="796.3" y1="590.5" x2="443.9" y2="681.6"/>
	<line class="st24" x1="796.3" y1="607.4" x2="443.9" y2="692.4"/>
	<line class="st24" x1="811.9" y1="623.3" x2="812.7" y2="393.8"/>
	<polyline class="st24" points="1540.5,471.3 1539.8,455.9 1584.4,444.4 	"/>
	<line class="st24" x1="749.9" y1="385" x2="377.7" y2="562.4"/>
	<polyline class="st24" points="384.3,579.7 395.9,579.7 443.9,558.1 	"/>
	<polygon class="st24" points="1124.8,367.6 1130.2,567.5 1312.5,577.2 1305.1,386.3 	"/>
	<line class="st24" x1="1295.8" y1="385.3" x2="1303.1" y2="576.7"/>
	<polyline class="st24" points="1129.9,559.2 1297.5,567.8 1290.7,391.7 1124.8,374.1 	"/>
	<polygon class="st24" points="954.7,349.9 957.2,620.2 1076.5,625.2 1069.6,362.4 	"/>
	<line class="st24" x1="1062.4" y1="361.5" x2="1068.1" y2="624.9"/>
	<polyline class="st24" points="954.8,360.5 1052.9,371.3 1055,506.5 956.1,502.2 	"/>
	<polyline class="st24" points="956.3,520.6 1060.2,527.2 1062.4,616.5 957.1,612.3 	"/>
	<polygon class="st24" points="1354.5,392.6 1364.3,635.1 1458.7,637.5 1447.6,401.9 	"/>
	<polyline class="st24" points="1354.7,397.7 1434.1,406.7 1437.8,533.8 1360,529.3 	"/>
	<line class="st24" x1="1441.2" y1="401.9" x2="1448.7" y2="637.2"/>
	<polyline class="st24" points="1364,627.7 1443.8,630.6 1441.2,551.7 1360.7,547.1 	"/>
	<polygon class="st24" points="514.6,895 465.3,889.3 465.3,748 515.4,740 	"/>
	<polygon class="st24" points="624.4,907.6 590.6,903.8 590.6,727.5 624.4,722.3 	"/>
	<polygon class="st24" points="680,913.9 785.7,925.9 785.7,696.3 680,713.4 	"/>
	<polygon class="st24" points="847.1,945 964.1,941.4 964.1,696.6 847.1,694.1 	"/>
	<polygon class="st24" points="1088.9,937.4 982.8,940.8 982.8,697 1088.9,699.2 	"/>
	<polygon class="st24" points="1202.4,933.3 1104.9,936.6 1104.9,699.3 1202.4,701.4 	"/>
	<polygon class="st24" points="1448.7,925.6 1362.9,928.4 1362.9,704.8 1448.7,706.6 	"/>
	<polyline class="st24" points="515.3,748.4 470.7,753.7 469.9,889.8 	"/>
	<polyline class="st24" points="624.4,732.7 600.7,735.3 600.2,904.9 	"/>
	<polyline class="st24" points="785.7,702.4 685.3,717.8 686.2,914.6 	"/>
	<line class="st24" x1="847.1" y1="700.8" x2="964.1" y2="702.3"/>
	<line class="st24" x1="1088.9" y1="708.5" x2="982.8" y2="707.4"/>
	<line class="st24" x1="1202.4" y1="710.7" x2="1104.9" y2="709.6"/>
	<line class="st24" x1="1362.9" y1="710.6" x2="1448.7" y2="711.2"/>
</g>
<g id="Ebene_4">
	<g>
		<defs>
			<path id="SVGID_1_" d="M1224.1,194.9L796.3,402v553.9l763.6-24.9V462.3L1224.1,194.9z M957.2,620.2l-2.5-270.4l115,12.5
				l6.9,262.9L957.2,620.2z M1130.2,567.5l-5.4-199.9l180.3,18.7l7.4,190.9L1130.2,567.5z M1364.3,635.1l-9.8-242.5l93.1,9.3
				l11.1,235.6L1364.3,635.1z"/>
		</defs>
		<clipPath id="SVGID_2_">
			<use xlink:href="#SVGID_1_"  style="overflow:visible;"/>
		</clipPath>
		<line class="st25" x1="812.3" y1="607.4" x2="1559.9" y2="637.5"/>
		<line class="st25" x1="811.9" y1="590.5" x2="1559.9" y2="623.3"/>
		<line class="st25" x1="812.5" y1="575" x2="1559.9" y2="612"/>
		<line class="st25" x1="812.1" y1="558.6" x2="1559.9" y2="598.1"/>
		<line class="st25" x1="811.7" y1="542.4" x2="1559.9" y2="585.5"/>
		<line class="st25" x1="812.2" y1="525.3" x2="1559.9" y2="572.9"/>
		<line class="st25" x1="812.3" y1="508.6" x2="1562.1" y2="558.8"/>
		<line class="st25" x1="811.7" y1="494.4" x2="1559.9" y2="547.3"/>
		<line class="st25" x1="811.7" y1="480.1" x2="1559.9" y2="532.9"/>
		<line class="st25" x1="811.7" y1="463.6" x2="1559.9" y2="519.6"/>
		<line class="st25" x1="812.5" y1="448.8" x2="1559.9" y2="506.2"/>
		<line class="st25" x1="812.6" y1="431.3" x2="1559.9" y2="497.4"/>
		<line class="st25" x1="812.7" y1="417.6" x2="1559.9" y2="483.2"/>
		<line class="st25" x1="837.4" y1="403.2" x2="1540.3" y2="467.1"/>
		<line class="st25" x1="860.5" y1="389.3" x2="1543.6" y2="455.2"/>
		<line class="st25" x1="860.5" y1="374.1" x2="1532.4" y2="440.9"/>
		<line class="st25" x1="882.2" y1="360.5" x2="1514.9" y2="426.8"/>
		<line class="st25" x1="906.8" y1="348.5" x2="1494.7" y2="411.6"/>
		<line class="st25" x1="931.7" y1="336.6" x2="1475.6" y2="396.4"/>
		<line class="st25" x1="954.7" y1="325.4" x2="1453.8" y2="379.4"/>
		<line class="st25" x1="981" y1="312.6" x2="1434.2" y2="364.8"/>
		<line class="st25" x1="1003.4" y1="301.7" x2="1415.5" y2="349.9"/>
		<line class="st25" x1="1028.9" y1="289.4" x2="1393.8" y2="333.1"/>
		<line class="st25" x1="1052.2" y1="278.2" x2="1375.7" y2="318.7"/>
		<line class="st25" x1="1075.1" y1="267.1" x2="1354.4" y2="302.2"/>
		<line class="st25" x1="1097.3" y1="256.3" x2="1333" y2="285.8"/>
		<line class="st25" x1="1120.6" y1="245.1" x2="1314" y2="270.7"/>
		<line class="st25" x1="1143.4" y1="234" x2="1292.5" y2="254.3"/>
		<line class="st25" x1="1221.9" y1="231.1" x2="1271.8" y2="237.9"/>
		<line class="st25" x1="1165.3" y1="223.4" x2="1205.5" y2="228.8"/>
		<line class="st25" x1="1184.5" y1="214.1" x2="1204.1" y2="216.5"/>
	</g>
	<line class="st24" x1="1204.4" y1="228.7" x2="1204.4" y2="204.4"/>
</g>
</svg>
